<svg width="27" height="27" viewBox="0 0 27 27" fill="none" xmlns="http://www.w3.org/2000/svg">
<path d="M18.9437 2.43457H7.9578C4.92412 2.43457 2.46484 4.89385 2.46484 7.92752V18.9134C2.46484 21.9471 4.92412 24.4064 7.9578 24.4064H18.9437C21.9774 24.4064 24.4367 21.9471 24.4367 18.9134V7.92752C24.4367 4.89385 21.9774 2.43457 18.9437 2.43457Z" stroke="#F8EFF2" stroke-width="1.22686" stroke-linecap="round" stroke-linejoin="round"/>
<path d="M17.8452 12.7284C17.9808 13.6427 17.8246 14.5765 17.3989 15.3969C16.9732 16.2173 16.2996 16.8826 15.474 17.2982C14.6484 17.7138 13.7128 17.8584 12.8002 17.7116C11.8877 17.5647 11.0447 17.1339 10.3911 16.4803C9.73751 15.8267 9.30666 14.9837 9.15982 14.0711C9.01298 13.1586 9.15762 12.223 9.57317 11.3973C9.98873 10.5717 10.654 9.89817 11.4745 9.47247C12.2949 9.04676 13.2287 8.8906 14.143 9.02617C15.0756 9.16447 15.939 9.59905 16.6057 10.2657C17.2723 10.9324 17.7069 11.7958 17.8452 12.7284Z" stroke="#F8EFF2" stroke-width="1.22686" stroke-linecap="round" stroke-linejoin="round"/>
<path d="M19.4932 7.3783H19.5042" stroke="#F8EFF2" stroke-width="1.22686" stroke-linecap="round" stroke-linejoin="round"/>
</svg>
